<?xml version="1.0" encoding="UTF-8"?>
<!DOCTYPE svg PUBLIC "-//W3C//DTD SVG 1.1//EN" "http://www.w3.org/Graphics/SVG/1.1/DTD/svg11.dtd">

<svg width="211" height="77" viewBox="0 0 211 77" fill="none" xmlns="http://www.w3.org/2000/svg">
<g clip-path="url(#clip0_203_100)">
<path d="M168.347 27.0881C168.347 18.2753 175.469 11.1276 184.251 11.1276V0C184.129 0 184.008 0 183.886 0C169.237 0.203059 157.42 12.0617 157.218 26.7632C157.218 26.885 157.218 27.0069 157.218 27.1287H168.306L168.347 27.0881Z" fill="#5D90FB"/>
<path d="M168.347 27.1287H157.259C157.259 27.2911 157.259 27.3723 157.259 27.4942C157.461 42.1956 169.278 54.0543 183.927 54.2574C184.048 54.2574 184.17 54.2574 184.291 54.2574V43.1297C175.51 43.1297 168.387 35.982 168.387 27.1693L168.347 27.1287Z" fill="#5D90FB"/>
<path d="M203.149 8.36609C198.05 13.4832 190.361 14.4172 184.332 11.1277V23.1082C193.396 25.7479 203.554 23.5549 210.757 16.4885C210.838 16.4072 210.919 16.326 211 16.2448L203.149 8.36609Z" fill="#E0A719"/>
<path d="M203.149 28.3877C198.05 33.5048 190.361 34.4389 184.332 31.1493V43.1298C193.396 45.7695 203.554 43.5765 210.757 36.5101C210.838 36.4288 210.919 36.3476 211 36.2664L203.149 28.3877Z" fill="#5D90FB"/>
<path d="M5.01801 61.6487C3.72303 61.6487 2.6304 61.202 1.78057 60.3491C0.930743 59.4963 0.485596 58.4404 0.485596 57.1814C0.485596 55.9224 0.930743 54.8665 1.78057 54.0137C2.6304 53.1608 3.72303 52.7141 5.01801 52.7141C6.31298 52.7141 6.55579 52.9172 7.20328 53.2827C7.85077 53.6482 8.37685 54.1761 8.74106 54.8259L7.97217 55.2727C7.68889 54.7447 7.28421 54.3386 6.75813 54.0137C6.23205 53.6888 5.62503 53.567 4.97754 53.567C3.88491 53.567 3.03508 53.9325 2.34712 54.6229C1.65917 55.3133 1.33542 56.1661 1.33542 57.1814C1.33542 58.1967 1.65917 59.0496 2.34712 59.74C3.03508 60.4304 3.92537 60.7959 4.97754 60.7959C6.02971 60.7959 6.19158 60.6334 6.75813 60.3491C7.32468 60.0649 7.68889 59.6181 7.97217 59.0902L8.74106 59.5369C8.37685 60.1867 7.89123 60.7146 7.20328 61.0801C6.51532 61.4456 5.7869 61.6487 5.01801 61.6487Z" fill="white"/>
<path d="M12.9902 55.1914C13.921 55.1914 14.6494 55.5163 15.216 56.1661C15.7825 56.8159 16.0658 57.5875 16.0658 58.4404C16.0658 59.2932 16.0658 58.6434 16.0658 58.8059H10.6431C10.724 59.415 11.0073 59.9024 11.4525 60.2679C11.8976 60.6334 12.4642 60.7958 13.1116 60.7958C13.7591 60.7958 14.0019 60.7146 14.3257 60.5116C14.6494 60.3085 14.9327 60.0648 15.0946 59.7399L15.823 60.1461C15.5397 60.5928 15.1755 60.9177 14.7304 61.1614C14.2448 61.405 13.7187 61.5269 13.1116 61.5269C12.1404 61.5269 11.3715 61.2426 10.7645 60.6334C10.1575 60.0242 9.83374 59.2526 9.83374 58.3185C9.83374 57.3845 10.117 56.6534 10.724 56.0036C11.3311 55.3945 12.0999 55.0696 13.0307 55.0696L12.9902 55.1914ZM12.9902 55.963C12.3428 55.963 11.8167 56.1661 11.3715 56.5316C10.9264 56.8971 10.6836 57.4251 10.6026 57.9936H15.216C15.135 57.3438 14.8922 56.8565 14.4471 56.491C14.0424 56.1255 13.5568 55.963 12.9902 55.963Z" fill="white"/>
<path d="M20.3553 55.1914C21.0838 55.1914 21.6908 55.4351 22.1359 55.8818C22.5811 56.3285 22.7834 56.9377 22.7834 57.7093V61.4862H21.9741V57.7093C21.9741 57.1408 21.8122 56.7347 21.5289 56.4504C21.2456 56.1661 20.841 56.0036 20.2744 56.0036C19.7079 56.0036 19.2222 56.2067 18.8176 56.5722C18.4534 56.9377 18.251 57.5063 18.251 58.3185V61.5269H17.4417V55.3945H18.251V56.3692C18.6962 55.6381 19.3841 55.2726 20.3149 55.2726L20.3553 55.1914Z" fill="white"/>
<path d="M27.761 56.1255H25.9804V59.8618C25.9804 60.1867 26.0614 60.4304 26.1828 60.5928C26.3042 60.7553 26.5065 60.7959 26.7898 60.7959C27.0326 60.7959 27.3968 60.7959 27.761 60.7959V61.5269C26.9112 61.6487 26.2637 61.6081 25.8186 61.3238C25.3734 61.0395 25.1711 60.5928 25.1711 59.8618V56.1255H23.8761V55.3539H25.1711V53.8919L25.9804 53.6482V55.3539H27.761V56.1255Z" fill="white"/>
<path d="M30.1082 56.3692C30.4724 55.6382 31.1199 55.2321 32.0506 55.2321V56.0037C31.4841 56.0037 31.039 56.1661 30.6747 56.491C30.3105 56.8159 30.1082 57.3439 30.1082 58.0343V61.4457H29.2988V55.3133H30.1082V56.3286V56.3692Z" fill="white"/>
<path d="M38.0804 60.7147C37.4329 61.3238 36.7045 61.6487 35.7737 61.6487C34.8429 61.6487 34.1145 61.3238 33.467 60.7147C32.8195 60.1055 32.5363 59.3338 32.5363 58.4404C32.5363 57.5469 32.86 56.7753 33.467 56.1661C34.1145 55.557 34.8429 55.2321 35.7737 55.2321C36.7045 55.2321 37.4329 55.557 38.0804 56.1661C38.7279 56.7753 39.0111 57.5469 39.0111 58.4404C39.0111 59.3338 38.6874 60.1055 38.0804 60.7147ZM34.074 60.1461C34.5597 60.6334 35.1262 60.8365 35.8142 60.8365C36.5021 60.8365 37.0687 60.5928 37.5543 60.1461C38.0399 59.6994 38.2422 59.0902 38.2422 58.3998C38.2422 57.7094 37.9994 57.1408 37.5543 56.6535C37.0687 56.1661 36.5021 55.9631 35.8142 55.9631C35.1262 55.9631 34.5597 56.2067 34.074 56.6535C33.5884 57.1408 33.3861 57.7094 33.3861 58.3998C33.3861 59.0902 33.6289 59.6587 34.074 60.1461Z" fill="white"/>
<path d="M49.0876 52.9171H49.8969V61.5268H49.0876V60.3085C48.521 61.2019 47.6712 61.6487 46.5786 61.6487C45.4859 61.6487 44.9598 61.3238 44.3124 60.7146C43.7053 60.1054 43.3816 59.3338 43.3816 58.4403C43.3816 57.5469 43.7053 56.7752 44.3124 56.1661C44.9194 55.5569 45.6883 55.232 46.5786 55.232C47.4689 55.232 48.4806 55.6787 49.0876 56.5722V52.9171ZM44.9194 60.1866C45.405 60.674 45.9715 60.877 46.6595 60.877C47.3475 60.877 47.914 60.6334 48.3996 60.1866C48.8852 59.7399 49.0876 59.1307 49.0876 58.4403C49.0876 57.7499 48.8448 57.1814 48.3996 56.694C47.914 56.2067 47.3475 56.0036 46.6595 56.0036C45.9715 56.0036 45.405 56.2473 44.9194 56.694C44.4338 57.1814 44.2314 57.7499 44.2314 58.4403C44.2314 59.1307 44.4742 59.6993 44.9194 60.1866Z" fill="white"/>
<path d="M54.5913 55.1914C55.5221 55.1914 56.2505 55.5163 56.8171 56.1661C57.3836 56.8159 57.6669 57.5875 57.6669 58.4404C57.6669 59.2932 57.6669 58.6434 57.6669 58.8059H52.2442C52.3251 59.415 52.6084 59.9024 53.0535 60.2679C53.4987 60.6334 54.0652 60.7958 54.7127 60.7958C55.3602 60.7958 55.603 60.7146 55.9268 60.5116C56.2505 60.3085 56.5338 60.0648 56.6957 59.7399L57.4241 60.1461C57.1408 60.5928 56.7766 60.9177 56.3314 61.1614C55.8458 61.405 55.3197 61.5269 54.7127 61.5269C53.7415 61.5269 52.9726 61.2426 52.3656 60.6334C51.7586 60.0242 51.4348 59.2526 51.4348 58.3185C51.4348 57.3845 51.7181 56.6534 52.3251 56.0036C52.9321 55.3945 53.701 55.0696 54.6318 55.0696L54.5913 55.1914ZM54.5913 55.963C53.9438 55.963 53.4177 56.1661 52.9726 56.5316C52.5274 56.8971 52.2846 57.4251 52.2037 57.9936H56.8171C56.7361 57.3438 56.4933 56.8565 56.0482 56.491C55.6435 56.1255 55.1579 55.963 54.5913 55.963Z" fill="white"/>
<path d="M65.5176 52.9171C66.2865 52.9171 66.934 53.1608 67.46 53.6887C67.9861 54.2167 68.2289 54.8665 68.2289 55.6381C68.2289 56.4097 67.9861 57.0595 67.46 57.5875C66.934 58.1154 66.2865 58.3591 65.5176 58.3591H63.2918V61.5674H62.442V52.9577H65.5176V52.9171ZM65.5176 57.5063C66.0437 57.5063 66.4888 57.3438 66.853 56.9783C67.2172 56.6128 67.3791 56.1661 67.3791 55.6381C67.3791 55.1102 67.2172 54.6228 66.853 54.2979C66.4888 53.973 66.0437 53.77 65.5176 53.77H63.2918V57.5469H65.5176V57.5063Z" fill="white"/>
<path d="M72.1139 55.1914C73.0447 55.1914 73.7731 55.5163 74.3396 56.1661C74.9062 56.8159 75.1895 57.5875 75.1895 58.4404C75.1895 59.2932 75.1895 58.6434 75.1895 58.8059H69.7668C69.8477 59.415 70.131 59.9024 70.5761 60.2679C71.0213 60.6334 71.5878 60.7958 72.2353 60.7958C72.8828 60.7958 73.1256 60.7146 73.4493 60.5116C73.7731 60.3085 74.0564 60.0648 74.2182 59.7399L74.9467 60.1461C74.6634 60.5928 74.2992 60.9177 73.854 61.1614C73.3684 61.405 72.8423 61.5269 72.2353 61.5269C71.2641 61.5269 70.4952 61.2426 69.8882 60.6334C69.2811 60.0242 68.9574 59.2526 68.9574 58.3185C68.9574 57.3845 69.2407 56.6534 69.8477 56.0036C70.4547 55.3945 71.2236 55.0696 72.1544 55.0696L72.1139 55.1914ZM72.1139 55.963C71.4664 55.963 70.9403 56.1661 70.4952 56.5316C70.05 56.8971 69.8072 57.4251 69.7263 57.9936H74.3396C74.2587 57.3438 74.0159 56.8565 73.5707 56.491C73.1661 56.1255 72.6805 55.963 72.1139 55.963Z" fill="white"/>
<path d="M76.9701 56.9377C76.9701 57.222 77.0915 57.4251 77.3343 57.5875C77.5771 57.75 77.9008 57.8718 78.2246 57.9936C78.5888 58.0748 78.9125 58.1967 79.2767 58.2779C79.641 58.3591 79.9242 58.5622 80.167 58.8059C80.4099 59.0495 80.5313 59.415 80.5313 59.8212C80.5313 60.2273 80.3289 60.7552 79.9242 61.0801C79.5196 61.405 78.9935 61.5675 78.3055 61.5675C77.6176 61.5675 77.2129 61.4456 76.8082 61.1613C76.4035 60.9177 76.1202 60.5522 75.9584 60.1461L76.6463 59.7399C76.7677 60.0648 76.9701 60.3085 77.2533 60.5116C77.5366 60.7146 77.9008 60.7958 78.3055 60.7958C78.7102 60.7958 79.0339 60.7146 79.3172 60.5522C79.6005 60.3897 79.7219 60.1461 79.7219 59.8212C79.7219 59.4963 79.6005 59.3338 79.3577 59.1714C79.1149 59.0089 78.7911 58.8871 78.4674 58.7652C78.1032 58.684 77.7794 58.5622 77.4152 58.481C77.051 58.3997 76.7677 58.1967 76.5249 57.953C76.2821 57.7093 76.1607 57.3438 76.1607 56.9377C76.1607 56.5316 76.3631 56.0036 76.7677 55.6788C77.1724 55.3539 77.658 55.1914 78.265 55.1914C78.8721 55.1914 79.1958 55.3132 79.6005 55.5163C80.0052 55.7194 80.248 56.0443 80.4503 56.4504L79.7624 56.8565C79.5196 56.2879 79.0339 56.0036 78.265 56.0036C77.4962 56.0036 77.6176 56.0849 77.3343 56.2473C77.0915 56.4098 76.9701 56.6534 76.9701 56.9377Z" fill="white"/>
<path d="M87.2084 55.3539H88.0178V63.9636H87.2084V60.3085C86.6419 61.202 85.792 61.6487 84.6994 61.6487C83.6068 61.6487 83.0807 61.3238 82.4332 60.7147C81.8262 60.1055 81.5024 59.3338 81.5024 58.4404C81.5024 57.5469 81.8262 56.7753 82.4332 56.1661C83.0402 55.557 83.8091 55.2321 84.6994 55.2321C85.5897 55.2321 86.6014 55.6788 87.2084 56.5722V55.3539ZM83.0402 60.1461C83.5258 60.6334 84.0924 60.8365 84.7803 60.8365C85.4683 60.8365 86.0349 60.5928 86.5205 60.1461C87.0061 59.6994 87.2084 59.0902 87.2084 58.3998C87.2084 57.7094 86.9656 57.1408 86.5205 56.6535C86.0349 56.1661 85.4683 55.9631 84.7803 55.9631C84.0924 55.9631 83.5258 56.2067 83.0402 56.6535C82.5546 57.1408 82.3523 57.7094 82.3523 58.3998C82.3523 59.0902 82.5951 59.6587 83.0402 60.1461Z" fill="white"/>
<path d="M94.2095 55.3539H95.0188V61.4863H94.2095V60.5116C93.7643 61.2426 93.0764 61.6081 92.1456 61.6081C91.2148 61.6081 90.8102 61.3645 90.365 60.9177C89.9199 60.471 89.7175 59.8618 89.7175 59.0902V55.3133H90.5269V59.0902C90.5269 59.6588 90.6888 60.0649 90.972 60.3492C91.2553 60.6335 91.66 60.7959 92.2265 60.7959C92.7931 60.7959 93.2787 60.5929 93.6834 60.2273C94.0476 59.8618 94.2499 59.2933 94.2499 58.481V55.2727L94.2095 55.3539Z" fill="white"/>
<path d="M97.7301 53.8918C97.6087 54.0136 97.4873 54.0542 97.3255 54.0542C97.1636 54.0542 97.0017 54.0136 96.9208 53.8918C96.7994 53.77 96.7589 53.6481 96.7589 53.4857C96.7589 53.3232 96.7994 53.2014 96.9208 53.0796C97.0422 52.9577 97.1636 52.9171 97.3255 52.9171C97.4873 52.9171 97.6492 52.9577 97.7301 53.0796C97.8515 53.2014 97.892 53.3232 97.892 53.4857C97.892 53.6481 97.8515 53.77 97.7301 53.8918ZM96.9208 61.5268V55.3944H97.7301V61.5268H96.9208Z" fill="white"/>
<path d="M100.239 56.9377C100.239 57.222 100.361 57.4251 100.603 57.5875C100.846 57.75 101.17 57.8718 101.494 57.9936C101.858 58.0748 102.182 58.1967 102.546 58.2779C102.91 58.3591 103.193 58.5622 103.436 58.8059C103.679 59.0495 103.8 59.415 103.8 59.8212C103.8 60.2273 103.598 60.7552 103.193 61.0801C102.789 61.405 102.263 61.5675 101.575 61.5675C100.887 61.5675 100.482 61.4456 100.077 61.1613C99.6726 60.9177 99.3893 60.5522 99.2274 60.1461L99.9154 59.7399C100.037 60.0648 100.239 60.3085 100.522 60.5116C100.806 60.7146 101.17 60.7958 101.575 60.7958C101.979 60.7958 102.303 60.7146 102.586 60.5522C102.87 60.3897 102.991 60.1461 102.991 59.8212C102.991 59.4963 102.87 59.3338 102.627 59.1714C102.384 59.0089 102.06 58.8871 101.736 58.7652C101.372 58.684 101.048 58.5622 100.684 58.481C100.32 58.3997 100.037 58.1967 99.794 57.953C99.5512 57.7093 99.4298 57.3438 99.4298 56.9377C99.4298 56.5316 99.6321 56.0036 100.037 55.6788C100.441 55.3539 100.927 55.1914 101.534 55.1914C102.141 55.1914 102.465 55.3132 102.87 55.5163C103.274 55.7194 103.517 56.0443 103.719 56.4504L103.031 56.8565C102.789 56.2879 102.303 56.0036 101.534 56.0036C100.765 56.0036 100.887 56.0849 100.603 56.2473C100.361 56.4098 100.239 56.6534 100.239 56.9377Z" fill="white"/>
<path d="M110.437 55.3539H111.246V61.4862H110.437V60.2679C109.871 61.1613 109.021 61.6081 107.928 61.6081C106.835 61.6081 106.309 61.2832 105.662 60.674C105.055 60.0648 104.731 59.2932 104.731 58.3997C104.731 57.5063 105.055 56.7347 105.662 56.1255C106.269 55.5163 107.038 55.1914 107.928 55.1914C108.818 55.1914 109.83 55.6381 110.437 56.5316V55.3132V55.3539ZM106.269 60.1461C106.754 60.6334 107.321 60.8365 108.009 60.8365C108.697 60.8365 109.264 60.5928 109.749 60.1461C110.235 59.6993 110.437 59.0901 110.437 58.3997C110.437 57.7093 110.194 57.1408 109.749 56.6534C109.264 56.1661 108.697 55.963 108.009 55.963C107.321 55.963 106.754 56.2067 106.269 56.6534C105.783 57.1408 105.581 57.7093 105.581 58.3997C105.581 59.0901 105.824 59.6587 106.269 60.1461Z" fill="white"/>
<path d="M3.72321 68.106C4.65398 68.106 5.3824 68.4309 5.94895 69.0807C6.5155 69.7304 6.79878 70.5021 6.79878 71.3549C6.79878 72.2078 6.79878 71.558 6.79878 71.7204H1.3356C1.41654 72.3296 1.69982 72.8169 2.14496 73.1824C2.59011 73.548 3.15666 73.7104 3.80415 73.7104C4.45164 73.7104 4.69445 73.6292 5.01819 73.4261C5.34193 73.2231 5.62521 72.9794 5.78708 72.6545L6.5155 73.0606C6.23223 73.5073 5.86802 73.8322 5.42287 74.0759C4.93725 74.3196 4.41117 74.4414 3.80415 74.4414C2.83292 74.4414 2.06403 74.1571 1.45701 73.548C0.849989 72.9388 0.526245 72.1671 0.526245 71.2331C0.526245 70.299 0.809521 69.568 1.41654 68.9182C2.02356 68.309 2.79245 67.9841 3.72321 67.9841V68.106ZM3.72321 68.8776C3.07573 68.8776 2.54964 69.0807 2.1045 69.4462C1.65935 69.8117 1.41654 70.3396 1.3356 70.9082H5.94895C5.86802 70.2584 5.62521 69.7711 5.18006 69.4055C4.77538 69.04 4.28977 68.8776 3.72321 68.8776Z" fill="white"/>
<path d="M14.8112 68.106C15.4992 68.106 16.0658 68.309 16.4704 68.7557C16.8751 69.2025 17.1179 69.8117 17.1179 70.5427V74.3602H16.3086V70.5427C16.3086 70.0147 16.1872 69.6086 15.9039 69.3243C15.6206 69.04 15.2564 68.8776 14.8112 68.8776C14.3661 68.8776 13.8805 69.04 13.5567 69.4055C13.233 69.771 13.0711 70.2584 13.0711 70.9894V74.4008H12.2618V70.5833C12.2618 70.0553 12.1404 69.6492 11.8571 69.3243C11.5738 68.9994 11.2501 68.8776 10.8049 68.8776C10.3598 68.8776 9.87415 69.04 9.55041 69.4055C9.22667 69.771 9.02433 70.2584 9.02433 70.9894V74.4008H8.21497V68.2684H9.02433V69.1619C9.46947 68.4715 10.0765 68.106 10.9263 68.106C11.7761 68.106 12.4236 68.4715 12.7878 69.2431C13.233 68.5121 13.8805 68.106 14.7708 68.106H14.8112Z" fill="white"/>
<path d="M23.0262 73.5886H27.2349V74.4008H22.1764V65.7911H27.154V66.6034H23.0262V69.6493H26.8302V70.4615H23.0262V73.5886Z" fill="white"/>
<path d="M31.6055 68.106C32.3339 68.106 32.9409 68.3496 33.3861 68.7964C33.8312 69.2431 34.0335 69.8523 34.0335 70.6239V74.4008H33.2242V70.6239C33.2242 70.0553 33.0623 69.6492 32.779 69.3649C32.4958 69.0806 32.0911 68.9182 31.5245 68.9182C30.958 68.9182 30.4724 69.1213 30.0677 69.4868C29.7035 69.8523 29.5011 70.4208 29.5011 71.2331V74.4414H28.6918V68.309H29.5011V69.2837C29.9463 68.5527 30.6342 68.1872 31.565 68.1872L31.6055 68.106Z" fill="white"/>
<path d="M41.0345 68.2684H41.8438V74.1571C41.8438 75.0506 41.5201 75.741 40.9131 76.2283C40.306 76.7157 39.5776 76.9999 38.7278 76.9999C37.271 76.9999 36.2997 76.5126 35.8141 75.4973L36.5425 75.0912C36.9067 75.8222 37.6352 76.2283 38.7683 76.2283C39.9014 76.2283 40.0228 76.0253 40.4275 75.6598C40.8321 75.2943 41.0345 74.7663 41.0345 74.1571V73.1824C40.4679 74.0759 39.6181 74.5226 38.5255 74.5226C37.4328 74.5226 36.9067 74.1977 36.2593 73.5886C35.6522 72.9794 35.3285 72.2078 35.3285 71.3143C35.3285 70.4208 35.6522 69.6492 36.2593 69.04C36.8663 68.4309 37.6352 68.106 38.5255 68.106C39.4158 68.106 40.4275 68.5527 41.0345 69.4461V68.2278V68.2684ZM36.8663 73.0606C37.3519 73.5479 37.9184 73.751 38.6064 73.751C39.2944 73.751 39.8609 73.5073 40.3465 73.0606C40.8321 72.6139 41.0345 72.0047 41.0345 71.3143C41.0345 70.6239 40.7917 70.0553 40.3465 69.568C39.8609 69.0806 39.2944 68.8776 38.6064 68.8776C37.9184 68.8776 37.3519 69.1213 36.8663 69.568C36.3807 70.0553 36.1783 70.6239 36.1783 71.3143C36.1783 72.0047 36.4211 72.5733 36.8663 73.0606Z" fill="white"/>
<path d="M46.5786 68.106C47.5094 68.106 48.2378 68.4309 48.8044 69.0807C49.3709 69.7304 49.6542 70.5021 49.6542 71.3549C49.6542 72.2078 49.6542 71.558 49.6542 71.7204H44.2315C44.3124 72.3296 44.5957 72.8169 45.0408 73.1824C45.486 73.548 46.0525 73.7104 46.7 73.7104C47.3475 73.7104 47.5903 73.6292 47.9141 73.4261C48.2378 73.2231 48.5211 72.9794 48.683 72.6545L49.4114 73.0606C49.1281 73.5073 48.7639 73.8322 48.3187 74.0759C47.8331 74.3196 47.307 74.4414 46.7 74.4414C45.7288 74.4414 44.9599 74.1571 44.3529 73.548C43.7459 72.9388 43.4221 72.1671 43.4221 71.2331C43.4221 70.299 43.7054 69.568 44.3124 68.9182C44.9194 68.309 45.6883 67.9841 46.6191 67.9841L46.5786 68.106ZM46.5786 68.8776C45.9311 68.8776 45.405 69.0807 44.9599 69.4462C44.5148 69.8117 44.2719 70.3396 44.191 70.9082H48.8044C48.7234 70.2584 48.4806 69.7711 48.0355 69.4055C47.6308 69.04 47.1452 68.8776 46.5786 68.8776Z" fill="white"/>
<path d="M53.9437 68.106C54.6721 68.106 55.2792 68.3496 55.7243 68.7964C56.1695 69.2431 56.3718 69.8523 56.3718 70.6239V74.4008H55.5624V70.6239C55.5624 70.0553 55.4006 69.6492 55.1173 69.3649C54.834 69.0806 54.4293 68.9182 53.8628 68.9182C53.2962 68.9182 52.8106 69.1213 52.4059 69.4868C52.0417 69.8523 51.8394 70.4208 51.8394 71.2331V74.4414H51.03V68.309H51.8394V69.2837C52.2845 68.5527 52.9725 68.1872 53.9033 68.1872L53.9437 68.106Z" fill="white"/>
<path d="M60.9852 68.106C61.7136 68.106 62.3207 68.3497 62.7658 68.7964C63.211 69.2432 63.4133 69.8524 63.4133 70.624V74.4009H62.6039V70.624C62.6039 70.0554 62.4421 69.6493 62.1588 69.365C61.8755 69.0807 61.4708 68.9183 60.9043 68.9183C60.3377 68.9183 59.8521 69.1213 59.4474 69.4869C59.0832 69.8524 58.8809 70.4209 58.8809 71.2332V74.4415H58.0715V65.8318H58.8809V69.2432C59.326 68.5122 60.014 68.1467 60.9448 68.1467L60.9852 68.106Z" fill="white"/>
<path d="M70.4142 68.2684H71.2236V74.4008H70.4142V73.1824C69.8477 74.0759 68.9979 74.5226 67.9052 74.5226C66.8126 74.5226 66.2865 74.1977 65.639 73.5886C65.032 72.9794 64.7083 72.2078 64.7083 71.3143C64.7083 70.4208 65.032 69.6492 65.639 69.04C66.246 68.4309 67.0149 68.106 67.9052 68.106C68.7955 68.106 69.8072 68.5527 70.4142 69.4461V68.2278V68.2684ZM66.246 73.0606C66.7317 73.5479 67.2982 73.751 67.9862 73.751C68.6741 73.751 69.2407 73.5073 69.7263 73.0606C70.2119 72.6139 70.4142 72.0047 70.4142 71.3143C70.4142 70.6239 70.1714 70.0553 69.7263 69.568C69.2407 69.0806 68.6741 68.8776 67.9862 68.8776C67.2982 68.8776 66.7317 69.1213 66.246 69.568C65.7604 70.0553 65.5581 70.6239 65.5581 71.3143C65.5581 72.0047 65.8009 72.5733 66.246 73.0606Z" fill="white"/>
<path d="M73.935 69.2837C74.2992 68.5527 74.9467 68.1466 75.8774 68.1466V68.9182C75.3109 68.9182 74.8657 69.0807 74.5015 69.4056C74.1373 69.7305 73.935 70.2584 73.935 70.9488V74.3602H73.1256V68.2278H73.935V69.2431V69.2837Z" fill="white"/>
<path d="M77.9413 66.8065C77.8199 66.9283 77.6985 66.9689 77.5366 66.9689C77.3748 66.9689 77.2129 66.9283 77.132 66.8065C77.0106 66.6846 76.9701 66.5628 76.9701 66.4004C76.9701 66.2379 77.0106 66.1161 77.132 65.9942C77.2534 65.8724 77.3748 65.8318 77.5366 65.8318C77.6985 65.8318 77.8604 65.8724 77.9413 65.9942C78.0627 66.1161 78.1032 66.2379 78.1032 66.4004C78.1032 66.5628 78.0627 66.6846 77.9413 66.8065ZM77.132 74.4415V68.3091H77.9413V74.4415H77.132Z" fill="white"/>
<path d="M85.1042 68.2684H85.9135V74.4008H85.1042V73.1824C84.5376 74.0759 83.6878 74.5226 82.5952 74.5226C81.5025 74.5226 80.9764 74.1977 80.329 73.5886C79.7219 72.9794 79.3982 72.2078 79.3982 71.3143C79.3982 70.4208 79.7219 69.6492 80.329 69.04C80.936 68.4309 81.7049 68.106 82.5952 68.106C83.4855 68.106 84.4972 68.5527 85.1042 69.4461V68.2278V68.2684ZM80.936 73.0606C81.4216 73.5479 81.9881 73.751 82.6761 73.751C83.3641 73.751 83.9306 73.5073 84.4162 73.0606C84.9018 72.6139 85.1042 72.0047 85.1042 71.3143C85.1042 70.6239 84.8614 70.0553 84.4162 69.568C83.9306 69.0806 83.3641 68.8776 82.6761 68.8776C81.9881 68.8776 81.4216 69.1213 80.936 69.568C80.4504 70.0553 80.248 70.6239 80.248 71.3143C80.248 72.0047 80.4908 72.5733 80.936 73.0606Z" fill="white"/>
<path d="M93.8856 68.106C94.8164 68.106 95.5448 68.4309 96.1114 69.0807C96.6779 69.7304 96.9612 70.5021 96.9612 71.3549C96.9612 72.2078 96.9612 71.558 96.9612 71.7204H91.5385C91.6194 72.3296 91.9027 72.8169 92.3478 73.1824C92.793 73.548 93.3595 73.7104 94.007 73.7104C94.6545 73.7104 94.8973 73.6292 95.2211 73.4261C95.5448 73.2231 95.8281 72.9794 95.99 72.6545L96.7184 73.0606C96.4351 73.5073 96.0709 73.8322 95.6258 74.0759C95.1401 74.3196 94.6141 74.4414 94.007 74.4414C93.0358 74.4414 92.2669 74.1571 91.6599 73.548C91.0529 72.9388 90.7291 72.1671 90.7291 71.2331C90.7291 70.299 91.0124 69.568 91.6194 68.9182C92.2264 68.309 92.9953 67.9841 93.9261 67.9841L93.8856 68.106ZM93.8856 68.8776C93.2381 68.8776 92.7121 69.0807 92.2669 69.4462C91.8218 69.8117 91.579 70.3396 91.498 70.9082H96.1114C96.0304 70.2584 95.7876 69.7711 95.3425 69.4055C94.9378 69.04 94.4522 68.8776 93.8856 68.8776Z" fill="white"/>
<path d="M104.407 74.5632C103.638 74.5632 102.95 74.3602 102.384 73.9947C101.817 73.6292 101.413 73.1012 101.21 72.4514L101.939 72.0047C102.101 72.5326 102.384 72.9387 102.789 73.2636C103.193 73.5479 103.76 73.7104 104.407 73.7104C105.055 73.7104 105.54 73.5885 105.905 73.3043C106.269 73.02 106.431 72.6545 106.431 72.1671C106.431 71.6798 106.269 71.3955 105.945 71.1518C105.621 70.9082 105.055 70.6645 104.326 70.4208C103.436 70.1365 102.829 69.8929 102.546 69.6898C101.898 69.2837 101.575 68.7151 101.575 67.9841C101.575 67.2531 101.817 66.6845 102.343 66.2378C102.87 65.8317 103.477 65.588 104.245 65.588C105.014 65.588 105.5 65.7505 105.986 66.116C106.471 66.4815 106.835 66.9282 107.078 67.4562L106.35 67.8623C105.945 66.9282 105.257 66.4409 104.245 66.4409C103.234 66.4409 103.274 66.5627 102.95 66.847C102.627 67.0907 102.465 67.4562 102.465 67.9435C102.465 68.4308 102.627 68.6745 102.91 68.9182C103.193 69.1619 103.679 69.3649 104.367 69.568C104.691 69.6898 104.893 69.7304 105.055 69.8116C105.176 69.8523 105.379 69.9335 105.662 70.0147C105.905 70.1365 106.107 70.2178 106.228 70.299C106.35 70.3802 106.512 70.502 106.674 70.6239C106.835 70.7457 106.997 70.9082 107.038 71.03C107.119 71.1518 107.2 71.3143 107.24 71.5173C107.321 71.7204 107.321 71.9235 107.321 72.1265C107.321 72.8575 107.038 73.4261 106.512 73.8728C105.986 74.3195 105.257 74.5226 104.407 74.5226V74.5632Z" fill="white"/>
<path d="M109.668 66.8065C109.547 66.9283 109.425 66.9689 109.263 66.9689C109.102 66.9689 108.94 66.9283 108.859 66.8065C108.737 66.6846 108.697 66.5628 108.697 66.4004C108.697 66.2379 108.737 66.1161 108.859 65.9942C108.98 65.8724 109.102 65.8318 109.263 65.8318C109.425 65.8318 109.587 65.8724 109.668 65.9942C109.79 66.1161 109.83 66.2379 109.83 66.4004C109.83 66.5628 109.79 66.6846 109.668 66.8065ZM108.859 74.4415V68.3091H109.668V74.4415H108.859Z" fill="white"/>
<path d="M112.177 69.8523C112.177 70.1365 112.299 70.3396 112.541 70.5021C112.784 70.6645 113.108 70.7863 113.432 70.9082C113.796 70.9894 114.12 71.1112 114.484 71.1925C114.848 71.2737 115.131 71.4767 115.374 71.7204C115.617 71.9641 115.738 72.3296 115.738 72.7357C115.738 73.1418 115.536 73.6698 115.131 73.9947C114.727 74.3196 114.201 74.482 113.513 74.482C112.825 74.482 112.42 74.3602 112.015 74.0759C111.611 73.8322 111.327 73.4667 111.166 73.0606L111.853 72.6545C111.975 72.9794 112.177 73.223 112.46 73.4261C112.744 73.6292 113.108 73.7104 113.513 73.7104C113.917 73.7104 114.241 73.6292 114.524 73.4667C114.808 73.3043 114.929 73.0606 114.929 72.7357C114.929 72.4108 114.808 72.2484 114.565 72.0859C114.322 71.9235 113.998 71.8016 113.675 71.6798C113.31 71.5986 112.987 71.4767 112.622 71.3955C112.258 71.3143 111.975 71.1112 111.732 70.8676C111.489 70.6239 111.368 70.2584 111.368 69.8523C111.368 69.4461 111.57 68.9182 111.975 68.5933C112.38 68.2684 112.865 68.106 113.472 68.106C114.079 68.106 114.403 68.2278 114.808 68.4309C115.212 68.6339 115.455 68.9588 115.657 69.3649L114.97 69.771C114.727 69.2025 114.241 68.9182 113.472 68.9182C112.703 68.9182 112.825 68.9994 112.541 69.1619C112.299 69.3243 112.177 69.568 112.177 69.8523Z" fill="white"/>
<path d="M120.271 69.0401H118.49V72.7764C118.49 73.1012 118.571 73.3449 118.693 73.5074C118.814 73.6698 119.016 73.7104 119.3 73.7104C119.542 73.7104 119.907 73.7104 120.271 73.7104V74.4414C119.421 74.5633 118.773 74.5227 118.328 74.2384C117.883 73.9541 117.681 73.5074 117.681 72.7764V69.0401H116.386V68.2684H117.681V66.8064L118.49 66.5627V68.2684H120.271V69.0401Z" fill="white"/>
<path d="M124.277 68.106C125.208 68.106 125.936 68.4309 126.503 69.0807C127.069 69.7304 127.353 70.5021 127.353 71.3549C127.353 72.2078 127.353 71.558 127.353 71.7204H121.93C122.011 72.3296 122.294 72.8169 122.739 73.1824C123.184 73.548 123.751 73.7104 124.399 73.7104C125.046 73.7104 125.289 73.6292 125.613 73.4261C125.936 73.2231 126.22 72.9794 126.381 72.6545L127.11 73.0606C126.827 73.5073 126.462 73.8322 126.017 74.0759C125.532 74.3196 125.006 74.4414 124.399 74.4414C123.427 74.4414 122.658 74.1571 122.051 73.548C121.444 72.9388 121.121 72.1671 121.121 71.2331C121.121 70.299 121.404 69.568 122.011 68.9182C122.618 68.309 123.387 67.9841 124.318 67.9841L124.277 68.106ZM124.277 68.8776C123.63 68.8776 123.104 69.0807 122.658 69.4462C122.213 69.8117 121.97 70.3396 121.89 70.9082H126.503C126.422 70.2584 126.179 69.7711 125.734 69.4055C125.329 69.04 124.844 68.8776 124.277 68.8776Z" fill="white"/>
<path d="M135.325 68.106C136.013 68.106 136.579 68.309 136.984 68.7557C137.389 69.2025 137.631 69.8117 137.631 70.5427V74.3602H136.822V70.5427C136.822 70.0147 136.701 69.6086 136.417 69.3243C136.134 69.04 135.77 68.8776 135.325 68.8776C134.88 68.8776 134.394 69.04 134.07 69.4055C133.747 69.771 133.585 70.2584 133.585 70.9894V74.4008H132.775V70.5833C132.775 70.0553 132.654 69.6492 132.371 69.3243C132.087 68.9994 131.764 68.8776 131.318 68.8776C130.873 68.8776 130.388 69.04 130.064 69.4055C129.74 69.771 129.538 70.2584 129.538 70.9894V74.4008H128.729V68.2684H129.538V69.1619C129.983 68.4715 130.59 68.106 131.44 68.106C132.29 68.106 132.937 68.4715 133.301 69.2431C133.747 68.5121 134.394 68.106 135.284 68.106H135.325Z" fill="white"/>
<path d="M144.632 68.2684H145.442V74.4008H144.632V73.1824C144.066 74.0759 143.216 74.5226 142.123 74.5226C141.031 74.5226 140.505 74.1977 139.857 73.5886C139.25 72.9794 138.927 72.2078 138.927 71.3143C138.927 70.4208 139.25 69.6492 139.857 69.04C140.464 68.4309 141.233 68.106 142.123 68.106C143.014 68.106 144.025 68.5527 144.632 69.4461V68.2278V68.2684ZM140.464 73.0606C140.95 73.5479 141.516 73.751 142.204 73.751C142.892 73.751 143.459 73.5073 143.945 73.0606C144.43 72.6139 144.632 72.0047 144.632 71.3143C144.632 70.6239 144.39 70.0553 143.945 69.568C143.459 69.0806 142.892 68.8776 142.204 68.8776C141.516 68.8776 140.95 69.1213 140.464 69.568C139.979 70.0553 139.776 70.6239 139.776 71.3143C139.776 72.0047 140.019 72.5733 140.464 73.0606Z" fill="white"/>
<path d="M147.991 69.8523C147.991 70.1365 148.113 70.3396 148.356 70.5021C148.598 70.6645 148.922 70.7863 149.246 70.9082C149.61 70.9894 149.934 71.1112 150.298 71.1925C150.662 71.2737 150.945 71.4767 151.188 71.7204C151.431 71.9641 151.552 72.3296 151.552 72.7357C151.552 73.1418 151.35 73.6698 150.945 73.9947C150.541 74.3196 150.015 74.482 149.327 74.482C148.639 74.482 148.234 74.3602 147.829 74.0759C147.425 73.8322 147.141 73.4667 146.98 73.0606L147.668 72.6545C147.789 72.9794 147.991 73.223 148.275 73.4261C148.558 73.6292 148.922 73.7104 149.327 73.7104C149.731 73.7104 150.055 73.6292 150.338 73.4667C150.622 73.3043 150.743 73.0606 150.743 72.7357C150.743 72.4108 150.622 72.2484 150.379 72.0859C150.136 71.9235 149.812 71.8016 149.489 71.6798C149.124 71.5986 148.801 71.4767 148.436 71.3955C148.072 71.3143 147.789 71.1112 147.546 70.8676C147.303 70.6239 147.182 70.2584 147.182 69.8523C147.182 69.4461 147.384 68.9182 147.789 68.5933C148.194 68.2684 148.679 68.106 149.286 68.106C149.893 68.106 150.217 68.2278 150.622 68.4309C151.026 68.6339 151.269 68.9588 151.472 69.3649L150.784 69.771C150.541 69.2025 150.055 68.9182 149.286 68.9182C148.517 68.9182 148.639 68.9994 148.356 69.1619C148.113 69.3243 147.991 69.568 147.991 69.8523Z" fill="white"/>
<path d="M19.8293 7.35071C13.9614 7.35071 9.18623 9.25946 5.50364 13.0364C1.82106 16.8539 0 21.6055 0 27.3317C0 33.058 1.86153 37.8908 5.62505 41.6677C9.38857 45.4446 14.2852 47.3127 20.2745 47.3127C26.2637 47.3127 33.2242 44.4699 36.9473 38.7436L31.3627 35.5353C29.0965 39.231 25.4544 41.0991 20.4768 41.0991C15.4992 41.0991 13.8805 40.1651 11.412 38.2969C8.94342 36.4288 7.40564 33.789 6.75815 30.3776H38.485C38.6469 29.3623 38.7278 28.3876 38.7278 27.4129C38.7278 21.8897 36.9877 17.1788 33.467 13.2394C29.9463 9.30007 25.4139 7.35071 19.8698 7.35071H19.8293ZM6.71768 24.5701C7.28423 21.2399 8.70061 18.5596 11.0478 16.5696C13.3544 14.5796 16.3086 13.5643 19.8293 13.5643C23.35 13.5643 25.4948 14.4984 27.761 16.3665C30.0272 18.2347 31.4436 20.9557 32.0102 24.5701H6.71768Z" fill="white"/>
<path d="M107.281 25.9509C105.217 25.3417 103.112 24.7326 101.089 24.1234C99.0252 23.5142 97.2446 22.7832 95.7877 21.9303C94.2904 21.0775 93.562 19.8998 93.562 18.4783C93.562 17.0569 94.2095 15.6761 95.5449 14.7827C96.8399 13.9298 98.4586 13.4831 100.32 13.4831C104.367 13.4831 107.038 15.1076 108.414 18.3565L113.958 15.2294C112.744 12.7521 110.923 10.8027 108.535 9.42191C106.148 8.04111 103.396 7.35071 100.32 7.35071C97.2446 7.35071 93.2787 8.40661 90.7292 10.559C88.1797 12.6709 86.9252 15.3918 86.9252 18.6814C86.9252 21.971 87.6537 23.2705 89.1105 24.895C90.5673 26.5195 92.3479 27.6566 94.4118 28.2658C96.4757 28.875 98.5395 29.5248 100.603 30.1339C102.667 30.7431 104.407 31.5147 105.905 32.4082C107.362 33.3017 108.09 34.4794 108.09 35.9414C108.09 37.4034 107.402 39.0279 105.986 39.8402C104.569 40.693 102.789 41.0991 100.603 41.0991C98.4181 41.0991 96.2733 40.5712 94.6141 39.5153C92.955 38.4594 91.8219 36.9973 91.2148 35.1698L85.5493 38.4187C86.642 41.0991 88.5439 43.2516 91.1339 44.876C93.7643 46.5005 96.9208 47.3127 100.603 47.3127C104.286 47.3127 108.13 46.2568 110.801 44.1856C113.432 42.1144 114.767 39.3528 114.767 35.9008C114.767 32.4488 114.039 31.1086 112.622 29.4029C111.166 27.6972 109.425 26.5601 107.321 25.9509H107.281Z" fill="white"/>
<path d="M144.794 8.32544L133.666 37.4441L121.04 8.32544H113.998L130.509 46.1756L129.781 47.5971C127.636 53.1203 124.237 55.7194 119.583 55.3539V61.5269C123.387 61.7706 126.705 60.7959 129.619 58.5216C132.533 56.2474 134.758 52.9984 136.377 48.6936L151.836 8.36605H144.794V8.32544Z" fill="white"/>
<path d="M62.604 7.14771H60.9448C55.6435 7.14771 51.1111 9.09707 47.388 12.9552C43.665 16.8133 41.8035 21.5649 41.8035 27.1287C41.8035 32.6925 43.665 37.4035 47.388 41.3022C51.1111 45.1604 55.6435 47.1097 60.9448 47.1097H62.604C67.4602 47.1097 71.6688 45.4853 75.23 42.1957V47.0691H81.7049V28.9969C81.7454 28.3877 81.7858 27.7379 81.7858 27.1287C81.7858 21.5649 79.9243 16.8539 76.2012 12.9552C72.4782 9.09707 67.9458 7.14771 62.6445 7.14771H62.604ZM71.3046 36.7943C68.7147 39.3935 65.5582 40.6931 61.7542 40.6931C57.9907 40.6931 54.7937 39.3935 52.2037 36.7943C49.6138 34.1952 48.3593 30.9462 48.3593 27.1287C48.3593 23.3112 49.6543 20.0623 52.2037 17.4631C54.7937 14.8639 57.9502 13.5644 61.7542 13.5644C65.5177 13.5644 68.7147 14.8639 71.3046 17.4631C73.8946 20.0623 75.1491 23.3112 75.1491 27.1287C75.1491 30.9462 73.8541 34.1952 71.3046 36.7943Z" fill="white"/>
</g>
<defs>
<clipPath id="clip0_203_100">
<rect width="211" height="77" fill="white"/>
</clipPath>
</defs>
</svg>
