<?xml version="1.0" encoding="UTF-8"?>
<!DOCTYPE svg PUBLIC "-//W3C//DTD SVG 1.1//EN" "http://www.w3.org/Graphics/SVG/1.1/DTD/svg11.dtd">
<svg version="1.1" xmlns="http://www.w3.org/2000/svg" xmlns:xlink="http://www.w3.org/1999/xlink" x="0" y="0" width="442.126" height="195.28" viewBox="0, 0, 442.126, 195.28">
  <g id="Layer_1" transform="translate(-68.036, -54.347)">
    <path d="M209.777,110.685 L209.768,111.04 C209.768,132.958 227.536,150.725 249.453,150.725 C264.045,150.659 275.521,143.344 283.469,131.479 L283.469,156.392 C273.883,164.057 261.491,167.181 249.453,167.733 C218.143,167.733 192.76,142.351 192.76,111.04 L192.769,110.685 L209.777,110.685 z" fill="#262095"/>
    <path d="M306.137,110.685 L306.146,111.04 L306.146,167.733 L289.138,167.733 L289.138,111.04 L289.129,110.685 L306.137,110.685 z" fill="#262095"/>
    <path d="M249.453,54.347 C280.662,54.438 305.358,79.87 306.137,110.685 L289.129,110.685 C288.991,88.784 270.9,71.898 249.453,71.355 L249.453,71.355 C227.69,71.42 210.321,89.153 209.777,110.685 L192.769,110.685 C193.246,78.955 218.1,55.14 249.453,54.347 L249.453,54.347 z" fill="#E2A61B"/>
    <path d="M124.729,54.347 C156.04,54.348 181.422,79.73 181.422,111.04 C181.33,114.674 181.446,112.99 181.131,116.095 L124.729,116.095 L124.729,116.178 L86.485,116.178 C89.908,136.267 104.503,148.704 124.729,149.725 C136.042,149.409 146.796,144.581 154.22,135.963 C155.402,134.59 156.35,133.032 157.415,131.567 L173.95,139.083 C164.25,157.094 144.732,167.227 124.729,167.733 C93.418,167.733 68.036,142.351 68.036,111.04 C68.036,79.73 93.418,54.348 124.729,54.348 L124.729,54.347 z M124.729,72.356 C110.62,72.607 97.498,80.069 90.713,92.601 C89.737,94.913 88.76,97.225 87.784,99.537 C87.777,99.568 87.771,99.599 87.765,99.63 L161.693,99.63 C155.448,82.706 142.773,73.267 124.729,72.356 z" fill="#262095"/>
    <path d="M510.162,116.71 C509.434,137.652 492.248,154.672 471.934,158.041 L471.934,204.584 L452.091,204.584 L452.091,158.165 C431.614,154.824 415.037,137.438 413.863,116.71 L510.162,116.71 z" fill="#262095"/>
    <path d="M232.446,105.371 C229.314,105.371 226.776,102.833 226.776,99.702 C226.776,96.571 229.314,94.033 232.446,94.033 C235.577,94.033 238.115,96.571 238.115,99.702 C238.115,102.833 235.577,105.371 232.446,105.371 z" fill="#262095"/>
    <path d="M266.461,105.371 C263.33,105.371 260.792,102.833 260.792,99.702 C260.792,96.571 263.33,94.033 266.461,94.033 C269.592,94.033 272.131,96.571 272.131,99.702 C272.131,102.833 269.592,105.371 266.461,105.371 z" fill="#262095"/>
    <path d="M439.335,54.347 L439.335,94.032 L484.69,94.032 L484.69,54.347 L501.698,54.347 L501.698,94.032 L510.162,94.032 L510.162,110.685 L413.863,110.685 L413.863,94.032 L422.327,94.032 L422.327,54.347 L439.335,54.347 z" fill="#E2A61B"/>
    <path d="M357.809,54.347 L360.004,54.365 L360.004,54.347 L396.855,54.347 L396.855,72.185 L360.185,72.185 L356.138,72.185 C349.804,72.185 343.997,73.305 341.182,75.24 C337.14,78.019 335.592,81.483 335.592,84.927 C335.592,89.017 338.172,92.676 343.117,95.259 C349.137,98.488 353.299,99.895 360.179,101.832 C369.854,104.63 380.389,108.505 389.849,112.379 C396.729,115.178 401.674,120.99 403.824,127.662 C406.189,135.196 404.684,143.161 400.384,149.834 C396.084,156.507 389.419,161.673 382.539,164.04 C375.309,166.657 367.614,167.237 360.005,167.677 L360.005,167.733 L323.154,167.733 L323.154,149.896 L360.005,149.896 L364.408,149.896 C368.806,149.896 374.437,149.544 378.66,147.029 C383.703,144.026 386.852,142.303 387.282,137.352 C387.712,131.755 384.917,126.159 378.467,123.791 C370.082,120.777 362.974,117.115 353.729,114.317 C346.204,112.164 338.248,109.03 331.152,105.371 C324.488,101.927 320.439,97.163 319.364,89.845 C318.289,83.387 319.893,74.464 323.762,69.082 C327.633,63.486 333.637,60.013 340.302,57.645 C345.681,55.571 352.114,54.787 357.809,54.347 L357.809,54.347 z" fill="#262095"/>
    <path d="M112.478,232.029 L101.404,232.029 Q101.15,231.189 101.15,230.486 Q101.15,229.509 101.501,228.572 L105.212,228.572 Q104.822,226.404 102.771,226.404 Q101.404,226.404 100.544,227.566 Q99.685,228.728 99.685,230.545 Q99.685,232.439 100.515,233.611 Q101.345,234.783 102.693,234.783 Q103.787,234.783 104.802,233.689 L108.962,238.689 Q106.052,240.974 102.498,240.974 Q98.162,240.974 95.212,238.064 Q92.263,235.154 92.263,230.857 Q92.263,226.58 95.242,223.631 Q98.22,220.681 102.556,220.681 Q106.794,220.681 109.675,223.562 Q112.556,226.443 112.556,230.662 Q112.556,231.091 112.478,232.029 z" fill="#262095"/>
    <path d="M132.869,240.584 L125.564,240.584 L125.564,229.588 Q125.564,227.908 124.177,227.908 Q122.81,227.908 122.81,229.588 L122.81,240.584 L115.505,240.584 L115.505,229.724 Q115.505,225.916 118.025,223.308 Q120.544,220.701 124.197,220.701 Q128.376,220.701 130.896,223.728 Q132.869,226.091 132.869,230.31 z" fill="#262095"/>
    <path d="M147.517,232.556 L147.517,239.256 Q145.935,239.841 144.49,239.841 Q140.955,239.841 138.503,237.166 Q136.052,234.49 136.052,230.623 Q136.052,226.443 139.001,223.572 Q141.951,220.701 146.248,220.701 Q148.533,220.701 150.623,221.619 Q152.712,222.537 153.904,224.08 Q155.896,226.638 155.896,231.502 L155.896,237.908 Q155.896,243.123 152.937,246.375 Q149.978,249.627 145.232,249.627 Q143.787,249.627 141.58,248.904 L141.58,242.263 Q143.005,243.045 144.47,243.045 Q146.443,243.045 147.517,241.746 Q148.591,240.447 148.591,238.025 L148.591,230.701 Q148.591,227.634 146.111,227.634 Q145.056,227.634 144.265,228.445 Q143.474,229.256 143.474,230.31 Q143.474,231.424 144.226,232.166 Q144.978,232.908 146.091,232.908 Q146.834,232.908 147.517,232.556 z" fill="#262095"/>
    <path d="M167.498,221.111 L167.498,240.584 L160.193,240.584 L160.193,221.111 z M163.865,212.42 Q165.349,212.42 166.433,213.465 Q167.517,214.509 167.517,215.935 Q167.517,217.459 166.492,218.435 Q165.466,219.412 163.865,219.412 Q162.263,219.412 161.238,218.435 Q160.212,217.459 160.212,215.935 Q160.212,214.509 161.296,213.465 Q162.38,212.42 163.865,212.42 z" fill="#262095"/>
    <path d="M189.158,240.584 L181.853,240.584 L181.853,229.588 Q181.853,227.908 180.466,227.908 Q179.099,227.908 179.099,229.588 L179.099,240.584 L171.794,240.584 L171.794,229.724 Q171.794,225.916 174.314,223.308 Q176.834,220.701 180.486,220.701 Q184.666,220.701 187.185,223.728 Q189.158,226.091 189.158,230.31 z" fill="#262095"/>
    <path d="M212.556,232.029 L201.482,232.029 Q201.228,231.189 201.228,230.486 Q201.228,229.509 201.58,228.572 L205.291,228.572 Q204.9,226.404 202.849,226.404 Q201.482,226.404 200.623,227.566 Q199.763,228.728 199.763,230.545 Q199.763,232.439 200.593,233.611 Q201.423,234.783 202.771,234.783 Q203.865,234.783 204.88,233.689 L209.041,238.689 Q206.13,240.974 202.576,240.974 Q198.24,240.974 195.291,238.064 Q192.341,235.154 192.341,230.857 Q192.341,226.58 195.32,223.631 Q198.298,220.681 202.634,220.681 Q206.873,220.681 209.753,223.562 Q212.634,226.443 212.634,230.662 Q212.634,231.091 212.556,232.029 z" fill="#262095"/>
    <path d="M234.724,232.029 L223.65,232.029 Q223.396,231.189 223.396,230.486 Q223.396,229.509 223.748,228.572 L227.459,228.572 Q227.068,226.404 225.017,226.404 Q223.65,226.404 222.791,227.566 Q221.931,228.728 221.931,230.545 Q221.931,232.439 222.761,233.611 Q223.591,234.783 224.939,234.783 Q226.033,234.783 227.048,233.689 L231.209,238.689 Q228.298,240.974 224.744,240.974 Q220.408,240.974 217.459,238.064 Q214.509,235.154 214.509,230.857 Q214.509,226.58 217.488,223.631 Q220.466,220.681 224.802,220.681 Q229.041,220.681 231.921,223.562 Q234.802,226.443 234.802,230.662 Q234.802,231.091 234.724,232.029 z" fill="#262095"/>
    <path d="M248.435,220.916 L248.435,228.728 Q247.673,228.299 247.048,228.299 Q245.056,228.299 245.056,231.345 L245.056,240.584 L237.751,240.584 L237.751,229.939 Q237.751,225.72 240.056,223.211 Q242.361,220.701 246.209,220.701 Q247.068,220.701 248.435,220.916 z" fill="#262095"/>
    <path d="M257.888,221.111 L257.888,240.584 L250.584,240.584 L250.584,221.111 z M254.255,212.42 Q255.74,212.42 256.824,213.465 Q257.908,214.509 257.908,215.935 Q257.908,217.459 256.882,218.435 Q255.857,219.412 254.255,219.412 Q252.654,219.412 251.628,218.435 Q250.603,217.459 250.603,215.935 Q250.603,214.509 251.687,213.465 Q252.771,212.42 254.255,212.42 z" fill="#262095"/>
    <path d="M279.548,240.584 L272.244,240.584 L272.244,229.588 Q272.244,227.908 270.857,227.908 Q269.49,227.908 269.49,229.588 L269.49,240.584 L262.185,240.584 L262.185,229.724 Q262.185,225.916 264.705,223.308 Q267.224,220.701 270.876,220.701 Q275.056,220.701 277.576,223.728 Q279.548,226.091 279.548,230.31 z" fill="#262095"/>
    <path d="M294.197,232.556 L294.197,239.256 Q292.615,239.841 291.169,239.841 Q287.634,239.841 285.183,237.166 Q282.732,234.49 282.732,230.623 Q282.732,226.443 285.681,223.572 Q288.63,220.701 292.927,220.701 Q295.212,220.701 297.302,221.619 Q299.392,222.537 300.583,224.08 Q302.576,226.638 302.576,231.502 L302.576,237.908 Q302.576,243.123 299.617,246.375 Q296.658,249.627 291.912,249.627 Q290.466,249.627 288.259,248.904 L288.259,242.263 Q289.685,243.045 291.15,243.045 Q293.123,243.045 294.197,241.746 Q295.271,240.447 295.271,238.025 L295.271,230.701 Q295.271,227.634 292.791,227.634 Q291.736,227.634 290.945,228.445 Q290.154,229.256 290.154,230.31 Q290.154,231.424 290.906,232.166 Q291.658,232.908 292.771,232.908 Q293.513,232.908 294.197,232.556 z" fill="#262095"/>
    <path d="M332.927,229.138 L337.888,229.138 Q337.966,230.056 337.966,230.427 Q337.966,232.791 336.814,234.881 L340.564,240.584 L333.611,240.584 L332.83,239.646 Q330.544,241.248 328.064,241.248 Q324.47,241.248 321.941,238.757 Q319.412,236.267 319.412,232.732 Q319.412,228.728 322.888,225.877 Q321.013,223.494 321.013,220.974 Q321.013,217.791 323.25,215.525 Q325.486,213.259 328.63,213.259 Q331.736,213.259 333.982,215.447 Q336.228,217.634 336.228,220.642 Q336.228,221.052 336.189,221.658 L330.154,221.658 Q329.998,219.666 328.767,219.666 Q327.615,219.666 327.615,220.779 Q327.615,221.17 327.947,221.658 z M326.599,230.935 Q325.642,231.638 325.642,232.576 Q325.642,233.474 326.218,234.099 Q326.794,234.724 327.634,234.724 Q328.259,234.724 328.982,234.197 z" fill="#262095"/>
    <path d="M369.568,221.384 L369.568,229.08 Q368.025,229.08 367.449,229.656 Q366.873,230.232 366.716,231.931 Q366.208,237.576 362.341,239.9 Q360.291,241.111 356.521,241.111 L355.505,241.111 L355.505,233.377 L355.837,233.377 Q357.595,233.377 358.347,232.644 Q359.099,231.912 359.216,230.076 Q359.373,227.088 359.773,225.877 Q360.173,224.666 361.404,223.474 Q363.552,221.384 367.361,221.384 z" fill="#262095"/>
    <path d="M379.001,221.111 L379.001,231.58 Q379.001,233.318 380.447,233.318 Q381.833,233.318 381.833,231.404 L381.833,221.111 L389.138,221.111 C389.138,221.111 389.226,231.676 389.138,233.531 C389.051,235.386 388.196,237.394 387.812,238.248 C387.427,239.103 386.744,240.227 386.274,240.584 C385.804,240.94 384.693,240.974 384.223,241.111 L384.041,241.141 L384.041,249.627 L376.833,249.627 L376.833,240.793 C375.405,240.463 374.433,239.465 373.455,238.503 Q371.697,236.482 371.697,233.357 L371.697,221.111 L379.001,221.111 z" fill="#262095"/>
    <path d="M405.603,221.384 L405.603,229.08 Q404.06,229.08 403.484,229.656 Q402.908,230.232 402.751,231.931 Q402.244,237.576 398.376,239.9 Q396.326,241.111 392.556,241.111 L391.541,241.111 L391.541,233.377 L391.873,233.377 Q393.63,233.377 394.382,232.644 Q395.134,231.912 395.251,230.076 Q395.408,227.088 395.808,225.877 Q396.208,224.666 397.439,223.474 Q399.587,221.384 403.396,221.384 z" fill="#262095"/>
    <path d="M414.49,213.924 L414.49,221.384 L417.771,221.384 L417.771,229.099 L414.49,229.099 Q414.49,231.424 415.222,232.302 Q415.955,233.181 417.908,233.181 L417.908,240.857 Q417.341,240.877 417.068,240.877 Q414.587,240.877 412.39,239.724 Q410.193,238.572 408.865,236.599 Q407.185,234.08 407.185,229.92 L407.185,213.924 z" fill="#262095"/>
    <path d="M440.505,232.029 L429.431,232.029 Q429.177,231.189 429.177,230.486 Q429.177,229.509 429.529,228.572 L433.24,228.572 Q432.849,226.404 430.798,226.404 Q429.431,226.404 428.572,227.566 Q427.712,228.728 427.712,230.545 Q427.712,232.439 428.542,233.611 Q429.373,234.783 430.72,234.783 Q431.814,234.783 432.83,233.689 L436.99,238.689 Q434.08,240.974 430.525,240.974 Q426.189,240.974 423.24,238.064 Q420.291,235.154 420.291,230.857 Q420.291,226.58 423.269,223.631 Q426.248,220.681 430.583,220.681 Q434.822,220.681 437.703,223.562 Q440.583,226.443 440.583,230.662 Q440.583,231.091 440.505,232.029 z" fill="#262095"/>
    <path d="M470.251,240.584 L462.947,240.584 L462.947,230.076 Q462.947,228.865 462.693,228.396 Q462.439,227.927 461.775,227.927 Q460.544,227.927 460.544,230.095 L460.544,240.584 L453.24,240.584 L453.24,230.076 Q453.24,228.865 452.976,228.396 Q452.712,227.927 452.048,227.927 Q450.837,227.927 450.837,230.095 L450.837,240.584 L443.533,240.584 L443.533,228.591 Q443.533,225.31 445.74,223.015 Q447.947,220.72 451.091,220.72 Q454.333,220.72 456.912,223.455 Q459.783,220.72 462.654,220.72 Q466.306,220.72 468.513,223.377 Q470.251,225.447 470.251,229.412 z" fill="#262095"/>
    <path d="M486.736,221.384 L486.736,229.08 Q485.193,229.08 484.617,229.656 Q484.041,230.232 483.884,231.931 Q483.376,237.576 479.509,239.9 Q477.458,241.111 473.689,241.111 L472.673,241.111 L472.673,233.377 L473.005,233.377 Q474.763,233.377 475.515,232.644 Q476.267,231.912 476.384,230.076 Q476.541,227.088 476.941,225.877 Q477.341,224.666 478.572,223.474 Q480.72,221.384 484.529,221.384 z" fill="#262095"/>
    <path d="M112.478,232.029 L101.404,232.029 Q101.15,231.189 101.15,230.486 Q101.15,229.509 101.501,228.572 L105.212,228.572 Q104.822,226.404 102.771,226.404 Q101.404,226.404 100.544,227.566 Q99.685,228.728 99.685,230.545 Q99.685,232.439 100.515,233.611 Q101.345,234.783 102.693,234.783 Q103.787,234.783 104.802,233.689 L108.962,238.689 Q106.052,240.974 102.498,240.974 Q98.162,240.974 95.212,238.064 Q92.263,235.154 92.263,230.857 Q92.263,226.58 95.242,223.631 Q98.22,220.681 102.556,220.681 Q106.794,220.681 109.675,223.562 Q112.556,226.443 112.556,230.662 Q112.556,231.091 112.478,232.029 z" fill="#262095"/>
  </g>
</svg>
